<?xml version="1.0" encoding="iso-8859-1"?>
<!-- Uploaded to: SVG Repo, www.svgrepo.com, Generator: SVG Repo Mixer Tools -->
<svg fill="#000000" height="800px" width="800px" version="1.1" id="Layer_1" xmlns="http://www.w3.org/2000/svg" xmlns:xlink="http://www.w3.org/1999/xlink" 
	 viewBox="0 0 512 512" xml:space="preserve">
<g>
	<g>
		<path d="M351.91,96.298L351.91,96.298l-5.611-5.547L256,1.468L165.701,90.75l-5.611,5.548v-0.001L0,254.586h39.984v97.736v30.237
			v127.973h295.958h30.237h105.836V382.559v-30.237v-97.736H512L351.91,96.298z M256,43.99l47.293,46.762h-94.586L256,43.99z
			 M160.09,138.819l18.036-17.832h155.749l18.035,17.832v85.529H176.058H160.09V138.819z M129.853,168.718v55.631H73.587
			L129.853,168.718z M120.621,480.295h-50.4v-97.736h50.4V480.295z M145.821,352.322h-75.6v-97.736h59.632h15.968V352.322z
			 M171.019,480.294h-20.161v-12.419h20.161V480.294z M171.019,437.637h-20.161v-12.42h20.161V437.637z M171.019,394.98h-20.161
			v-12.42h20.161V394.98z M176.058,254.586h134.685v97.736H176.058V254.586z M201.257,480.294v-97.736h134.685v97.736H201.257z
			 M361.142,352.321h-20.161v-12.419h20.161V352.321z M361.142,309.664h-20.161v-12.42h20.161V309.664z M361.142,267.007h-20.161
			v-12.42h10.93h9.231V267.007z M382.147,168.718l56.265,55.631h-56.265V168.718z M441.779,480.294H366.18v-97.736h75.599V480.294z
			 M441.779,352.322h-50.4v-97.736h50.4V352.322z"/>
	</g>
</g>
</svg>